<svg xmlns="http://www.w3.org/2000/svg" version="1.2" viewBox="0 0 56 56" width="56" height="56"><defs fill="#000000"><linearGradient id="P" gradientUnits="userSpaceOnUse" fill="#000000"/><linearGradient id="g1" x2="1" href="#P" gradientTransform="matrix(0,20.94,-55.992,0,27.996,0)" fill="#000000"><stop stop-color="#77e6ff" fill="#000000"/><stop offset="1" stop-color="#006282" fill="#000000"/></linearGradient><linearGradient id="g2" x2="1" href="#P" gradientTransform="matrix(0,20.94,-55.992,0,27.996,17.526)" fill="#000000"><stop stop-color="#77e6ff" fill="#000000"/><stop offset="1" stop-color="#006282" fill="#000000"/></linearGradient><linearGradient id="g3" x2="1" href="#P" gradientTransform="matrix(0,20.94,-55.992,0,27.996,35.052)" fill="#000000"><stop stop-color="#77e6ff" fill="#000000"/><stop offset="1" stop-color="#006282" fill="#000000"/></linearGradient><linearGradient id="g4" x2="1" href="#P" gradientTransform="matrix(0,4.666,-4.666,0,46.93,44.585)" fill="#000000"><stop stop-color="#77e6ff" fill="#000000"/><stop offset="1" stop-color="#006282" fill="#000000"/></linearGradient><linearGradient id="g5" x2="1" href="#P" gradientTransform="matrix(0,4.666,-4.666,0,37.444,44.585)" fill="#000000"><stop stop-color="#77e6ff" fill="#000000"/><stop offset="1" stop-color="#006282" fill="#000000"/></linearGradient><linearGradient id="g6" x2="1" href="#P" gradientTransform="matrix(0,4.666,-4.666,0,27.978,44.585)" fill="#000000"><stop stop-color="#77e6ff" fill="#000000"/><stop offset="1" stop-color="#006282" fill="#000000"/></linearGradient><linearGradient id="g7" x2="1" href="#P" gradientTransform="matrix(0,4.666,-4.666,0,46.93,25.633)" fill="#000000"><stop stop-color="#77e6ff" fill="#000000"/><stop offset="1" stop-color="#006282" fill="#000000"/></linearGradient><linearGradient id="g8" x2="1" href="#P" gradientTransform="matrix(0,4.666,-4.666,0,37.444,25.633)" fill="#000000"><stop stop-color="#77e6ff" fill="#000000"/><stop offset="1" stop-color="#006282" fill="#000000"/></linearGradient><linearGradient id="g9" x2="1" href="#P" gradientTransform="matrix(0,4.666,-4.666,0,27.978,25.633)" fill="#000000"><stop stop-color="#77e6ff" fill="#000000"/><stop offset="1" stop-color="#006282" fill="#000000"/></linearGradient><linearGradient id="g10" x2="1" href="#P" gradientTransform="matrix(0,4.666,-4.666,0,46.93,9.466)" fill="#000000"><stop stop-color="#77e6ff" fill="#000000"/><stop offset="1" stop-color="#006282" fill="#000000"/></linearGradient><linearGradient id="g11" x2="1" href="#P" gradientTransform="matrix(0,4.666,-4.666,0,37.444,9.466)" fill="#000000"><stop stop-color="#77e6ff" fill="#000000"/><stop offset="1" stop-color="#006282" fill="#000000"/></linearGradient><linearGradient id="g12" x2="1" href="#P" gradientTransform="matrix(0,4.666,-4.666,0,27.978,9.466)" fill="#000000"><stop stop-color="#77e6ff" fill="#000000"/><stop offset="1" stop-color="#006282" fill="#000000"/></linearGradient></defs><style>.a{fill:url(#g1)}.b{fill:url(#g2)}.c{fill:url(#g3)}.d{fill:url(#g4)}.e{fill:url(#g5)}.f{fill:url(#g6)}.g{fill:url(#g7)}.h{fill:url(#g8)}.i{fill:url(#g9)}.j{fill:url(#g10)}.k{fill:url(#g11)}.l{fill:url(#g12)}</style><path fill-rule="evenodd" class="a" d="m54.2 20.9h-52.5q-0.3 0-0.6-0.1-0.3-0.1-0.6-0.4-0.2-0.2-0.4-0.5-0.1-0.4-0.1-0.7v-12.8q0-1.3 0.5-2.5 0.5-1.1 1.4-2 0.9-0.9 2.1-1.4 1.1-0.5 2.4-0.5h43.2q1.2 0 2.4 0.5 1.2 0.5 2.1 1.4 0.9 0.9 1.4 2 0.5 1.2 0.5 2.5v12.8q0 0.3-0.1 0.7-0.2 0.3-0.4 0.5-0.3 0.3-0.6 0.4-0.3 0.1-0.7 0.1zm-50.7-3.4h49v-11.1q0-0.6-0.2-1.1-0.3-0.5-0.7-1-0.4-0.4-0.9-0.6-0.5-0.2-1.1-0.2h-43.2q-0.6 0-1.1 0.2-0.5 0.2-0.9 0.6-0.5 0.5-0.7 1-0.2 0.5-0.2 1.1z" fill="#000000"/><path fill-rule="evenodd" class="b" d="m54.2 38.5h-52.5q-0.3 0-0.6-0.2-0.3-0.1-0.6-0.3-0.2-0.3-0.4-0.6-0.1-0.3-0.1-0.7v-17.4q0-0.4 0.1-0.7 0.2-0.3 0.4-0.6 0.3-0.2 0.6-0.3 0.3-0.2 0.6-0.2h52.5q0.4 0 0.7 0.2 0.3 0.1 0.6 0.3 0.2 0.3 0.4 0.6 0.1 0.3 0.1 0.7v17.4q0 0.4-0.1 0.7-0.2 0.3-0.4 0.6-0.3 0.2-0.6 0.3-0.3 0.2-0.7 0.2zm-50.7-3.5h49v-14h-49z" fill="#000000"/><path fill-rule="evenodd" class="c" d="m49.6 56h-43.2q-1.3 0-2.4-0.5-1.2-0.5-2.1-1.4-0.9-0.9-1.4-2.1-0.5-1.1-0.5-2.4v-12.8q0-0.4 0.1-0.7 0.2-0.3 0.4-0.5 0.3-0.3 0.6-0.4 0.3-0.1 0.6-0.1h52.5q0.4 0 0.7 0.1 0.3 0.1 0.6 0.4 0.2 0.2 0.4 0.5 0.1 0.3 0.1 0.7v12.8q0 1.3-0.5 2.4-0.5 1.2-1.4 2.1-0.9 0.9-2.1 1.4-1.2 0.5-2.4 0.5zm-46.1-17.5v11.1q0 0.6 0.2 1.1 0.2 0.5 0.7 1 0.4 0.4 0.9 0.6 0.5 0.2 1.1 0.2h43.2q0.6 0 1.1-0.2 0.5-0.2 0.9-0.6 0.4-0.5 0.7-1 0.2-0.5 0.2-1.1v-11.1z" fill="#000000"/><path class="d" d="m46.9 49.3c-1.3 0-2.3-1.1-2.3-2.4 0-1.3 1-2.3 2.3-2.3 1.3 0 2.4 1 2.4 2.3 0 1.3-1.1 2.4-2.4 2.4z" fill="#000000"/><path class="e" d="m37.4 49.3c-1.2 0-2.3-1.1-2.3-2.4 0-1.3 1.1-2.3 2.3-2.3 1.3 0 2.4 1 2.4 2.3 0 1.3-1.1 2.4-2.4 2.4z" fill="#000000"/><path class="f" d="m28 49.3c-1.3 0-2.4-1.1-2.4-2.4 0-1.3 1.1-2.3 2.4-2.3 1.3 0 2.3 1 2.3 2.3 0 1.3-1 2.4-2.3 2.4z" fill="#000000"/><path class="g" d="m46.9 30.3c-1.3 0-2.3-1-2.3-2.3 0-1.3 1-2.4 2.3-2.4 1.3 0 2.4 1.1 2.4 2.4 0 1.3-1.1 2.3-2.4 2.3z" fill="#000000"/><path class="h" d="m37.4 30.3c-1.2 0-2.3-1-2.3-2.3 0-1.3 1.1-2.4 2.3-2.4 1.3 0 2.4 1.1 2.4 2.4 0 1.3-1.1 2.3-2.4 2.3z" fill="#000000"/><path class="i" d="m28 30.3c-1.3 0-2.4-1-2.4-2.3 0-1.3 1.1-2.4 2.4-2.4 1.3 0 2.3 1.1 2.3 2.4 0 1.3-1 2.3-2.3 2.3z" fill="#000000"/><path class="j" d="m46.9 14.1c-1.3 0-2.3-1-2.3-2.3 0-1.3 1-2.3 2.3-2.3 1.3 0 2.4 1 2.4 2.3 0 1.3-1.1 2.3-2.4 2.3z" fill="#000000"/><path class="k" d="m37.4 14.1c-1.2 0-2.3-1-2.3-2.3 0-1.3 1.1-2.3 2.3-2.3 1.3 0 2.4 1 2.4 2.3 0 1.3-1.1 2.3-2.4 2.3z" fill="#000000"/><path class="l" d="m28 14.1c-1.3 0-2.4-1-2.4-2.3 0-1.3 1.1-2.3 2.4-2.3 1.3 0 2.3 1 2.3 2.3 0 1.3-1 2.3-2.3 2.3z" fill="#000000"/></svg>