<svg xmlns="http://www.w3.org/2000/svg" version="1.2" viewBox="0 0 55 55" width="55" height="55"><defs fill="#000000"><linearGradient id="P" gradientUnits="userSpaceOnUse" fill="#000000"/><linearGradient id="g1" x2="1" href="#P" gradientTransform="matrix(0,54.295,-54.295,0,27.148,0)" fill="#000000"><stop stop-color="#77e6ff" fill="#000000"/><stop offset="1" stop-color="#006282" fill="#000000"/></linearGradient><linearGradient id="g2" x2="1" href="#P" gradientTransform="matrix(0,3.181,-3.181,0,8.059,6.575)" fill="#000000"><stop stop-color="#77e6ff" fill="#000000"/><stop offset="1" stop-color="#006282" fill="#000000"/></linearGradient><linearGradient id="g3" x2="1" href="#P" gradientTransform="matrix(0,3.181,-3.181,0,14.422,6.575)" fill="#000000"><stop stop-color="#77e6ff" fill="#000000"/><stop offset="1" stop-color="#006282" fill="#000000"/></linearGradient><linearGradient id="g4" x2="1" href="#P" gradientTransform="matrix(0,3.181,-3.181,0,20.784,6.575)" fill="#000000"><stop stop-color="#77e6ff" fill="#000000"/><stop offset="1" stop-color="#006282" fill="#000000"/></linearGradient><linearGradient id="g5" x2="1" href="#P" gradientTransform="matrix(0,3.181,-15.907,0,39.872,6.575)" fill="#000000"><stop stop-color="#77e6ff" fill="#000000"/><stop offset="1" stop-color="#006282" fill="#000000"/></linearGradient><linearGradient id="g6" x2="1" href="#P" gradientTransform="matrix(0,3.181,-3.181,0,8.059,25.663)" fill="#000000"><stop stop-color="#77e6ff" fill="#000000"/><stop offset="1" stop-color="#006282" fill="#000000"/></linearGradient><linearGradient id="g7" x2="1" href="#P" gradientTransform="matrix(0,3.181,-3.181,0,14.422,25.663)" fill="#000000"><stop stop-color="#77e6ff" fill="#000000"/><stop offset="1" stop-color="#006282" fill="#000000"/></linearGradient><linearGradient id="g8" x2="1" href="#P" gradientTransform="matrix(0,3.181,-3.181,0,20.784,25.663)" fill="#000000"><stop stop-color="#77e6ff" fill="#000000"/><stop offset="1" stop-color="#006282" fill="#000000"/></linearGradient><linearGradient id="g9" x2="1" href="#P" gradientTransform="matrix(0,3.181,-15.907,0,39.872,25.663)" fill="#000000"><stop stop-color="#77e6ff" fill="#000000"/><stop offset="1" stop-color="#006282" fill="#000000"/></linearGradient><linearGradient id="g10" x2="1" href="#P" gradientTransform="matrix(0,3.181,-3.181,0,8.059,44.751)" fill="#000000"><stop stop-color="#77e6ff" fill="#000000"/><stop offset="1" stop-color="#006282" fill="#000000"/></linearGradient><linearGradient id="g11" x2="1" href="#P" gradientTransform="matrix(0,3.181,-3.181,0,14.422,44.751)" fill="#000000"><stop stop-color="#77e6ff" fill="#000000"/><stop offset="1" stop-color="#006282" fill="#000000"/></linearGradient><linearGradient id="g12" x2="1" href="#P" gradientTransform="matrix(0,3.181,-3.181,0,20.784,44.751)" fill="#000000"><stop stop-color="#77e6ff" fill="#000000"/><stop offset="1" stop-color="#006282" fill="#000000"/></linearGradient><linearGradient id="g13" x2="1" href="#P" gradientTransform="matrix(0,3.181,-15.907,0,39.872,44.751)" fill="#000000"><stop stop-color="#77e6ff" fill="#000000"/><stop offset="1" stop-color="#006282" fill="#000000"/></linearGradient></defs><style>.a{fill:url(#g1)}.b{fill:url(#g2)}.c{fill:url(#g3)}.d{fill:url(#g4)}.e{fill:url(#g5)}.f{fill:url(#g6)}.g{fill:url(#g7)}.h{fill:url(#g8)}.i{fill:url(#g9)}.j{fill:url(#g10)}.k{fill:url(#g11)}.l{fill:url(#g12)}.m{fill:url(#g13)}</style><path fill-rule="evenodd" class="a" d="m0 0h54.3v16.1h-3.3v3.2h3.3v15.9h-3.3v3.2h3.3v15.9h-54.3v-15.9h3.3v-3.2h-3.3v-15.9h3.3v-3.2h-3.3zm51.1 41.6h-47.9v9.5h47.9zm-3.3-6.3h-41.3v3.2h41.3zm3.3-12.8h-47.9v9.6h47.9zm-3.3-6.4h-41.3v3.2h41.3zm-44.6-3.2h47.9v-9.8h-47.9z" fill="#000000"/><path class="b" d="m6.5 6.6h3.1v3.2h-3.1z" fill="#000000"/><path class="c" d="m12.8 6.6h3.2v3.2h-3.2z" fill="#000000"/><path class="d" d="m19.2 6.6h3.2v3.2h-3.2z" fill="#000000"/><path class="e" d="m31.9 6.6h15.9v3.2h-15.9z" fill="#000000"/><path class="f" d="m6.5 25.7h3.1v3.1h-3.1z" fill="#000000"/><path class="g" d="m12.8 25.7h3.2v3.1h-3.2z" fill="#000000"/><path class="h" d="m19.2 25.7h3.2v3.1h-3.2z" fill="#000000"/><path class="i" d="m31.9 25.7h15.9v3.1h-15.9z" fill="#000000"/><path class="j" d="m6.5 44.8h3.1v3.1h-3.1z" fill="#000000"/><path class="k" d="m12.8 44.8h3.2v3.1h-3.2z" fill="#000000"/><path class="l" d="m19.2 44.8h3.2v3.1h-3.2z" fill="#000000"/><path class="m" d="m31.9 44.8h15.9v3.1h-15.9z" fill="#000000"/></svg>