<svg xmlns="http://www.w3.org/2000/svg" version="1.2" viewBox="0 0 55 55" width="55" height="55"><defs fill="#000000"><linearGradient id="P" gradientUnits="userSpaceOnUse" fill="#000000"/><linearGradient id="g1" x2="1" href="#P" gradientTransform="matrix(0,54.295,-54.295,0,27.147,0)" fill="#000000"><stop stop-color="#77e6ff" fill="#000000"/><stop offset="1" stop-color="#006282" fill="#000000"/></linearGradient><linearGradient id="g2" x2="1" href="#P" gradientTransform="matrix(0,11.664,-11.664,0,40.721,6.894)" fill="#000000"><stop stop-color="#77e6ff" fill="#000000"/><stop offset="1" stop-color="#006282" fill="#000000"/></linearGradient><linearGradient id="g3" x2="1" href="#P" gradientTransform="matrix(0,3.181,-4.802,0,9.33,6.893)" fill="#000000"><stop stop-color="#77e6ff" fill="#000000"/><stop offset="1" stop-color="#006282" fill="#000000"/></linearGradient><linearGradient id="g4" x2="1" href="#P" gradientTransform="matrix(0,3.182,-4.882,0,9.37,15.376)" fill="#000000"><stop stop-color="#77e6ff" fill="#000000"/><stop offset="1" stop-color="#006282" fill="#000000"/></linearGradient><linearGradient id="g5" x2="1" href="#P" gradientTransform="matrix(0,3.182,-4.882,0,17.857,6.893)" fill="#000000"><stop stop-color="#77e6ff" fill="#000000"/><stop offset="1" stop-color="#006282" fill="#000000"/></linearGradient><linearGradient id="g6" x2="1" href="#P" gradientTransform="matrix(0,3.182,-4.882,0,17.857,15.376)" fill="#000000"><stop stop-color="#77e6ff" fill="#000000"/><stop offset="1" stop-color="#006282" fill="#000000"/></linearGradient><linearGradient id="g7" x2="1" href="#P" gradientTransform="matrix(0,3.182,-4.962,0,26.301,6.893)" fill="#000000"><stop stop-color="#77e6ff" fill="#000000"/><stop offset="1" stop-color="#006282" fill="#000000"/></linearGradient><linearGradient id="g8" x2="1" href="#P" gradientTransform="matrix(0,3.182,-4.962,0,26.301,15.376)" fill="#000000"><stop stop-color="#77e6ff" fill="#000000"/><stop offset="1" stop-color="#006282" fill="#000000"/></linearGradient><linearGradient id="g9" x2="1" href="#P" gradientTransform="matrix(0,11.664,-11.664,0,40.721,35.737)" fill="#000000"><stop stop-color="#77e6ff" fill="#000000"/><stop offset="1" stop-color="#006282" fill="#000000"/></linearGradient><linearGradient id="g10" x2="1" href="#P" gradientTransform="matrix(0,3.181,-4.802,0,9.33,35.737)" fill="#000000"><stop stop-color="#77e6ff" fill="#000000"/><stop offset="1" stop-color="#006282" fill="#000000"/></linearGradient><linearGradient id="g11" x2="1" href="#P" gradientTransform="matrix(0,3.181,-4.802,0,9.33,44.221)" fill="#000000"><stop stop-color="#77e6ff" fill="#000000"/><stop offset="1" stop-color="#006282" fill="#000000"/></linearGradient><linearGradient id="g12" x2="1" href="#P" gradientTransform="matrix(0,3.182,-4.882,0,17.853,35.737)" fill="#000000"><stop stop-color="#77e6ff" fill="#000000"/><stop offset="1" stop-color="#006282" fill="#000000"/></linearGradient><linearGradient id="g13" x2="1" href="#P" gradientTransform="matrix(0,3.182,-4.882,0,17.853,44.221)" fill="#000000"><stop stop-color="#77e6ff" fill="#000000"/><stop offset="1" stop-color="#006282" fill="#000000"/></linearGradient><linearGradient id="g14" x2="1" href="#P" gradientTransform="matrix(0,3.182,-4.962,0,26.297,35.737)" fill="#000000"><stop stop-color="#77e6ff" fill="#000000"/><stop offset="1" stop-color="#006282" fill="#000000"/></linearGradient><linearGradient id="g15" x2="1" href="#P" gradientTransform="matrix(0,3.182,-4.962,0,26.297,44.221)" fill="#000000"><stop stop-color="#77e6ff" fill="#000000"/><stop offset="1" stop-color="#006282" fill="#000000"/></linearGradient></defs><style>.a{fill:url(#g1)}.b{fill:url(#g2)}.c{fill:url(#g3)}.d{fill:url(#g4)}.e{fill:url(#g5)}.f{fill:url(#g6)}.g{fill:url(#g7)}.h{fill:url(#g8)}.i{fill:url(#g9)}.j{fill:url(#g10)}.k{fill:url(#g11)}.l{fill:url(#g12)}.m{fill:url(#g13)}.n{fill:url(#g14)}.o{fill:url(#g15)}</style><path fill-rule="evenodd" class="a" d="m41.5 25.3v3.7h9.6q0.6 0 1.2 0.2 0.6 0.2 1.1 0.7 0.4 0.4 0.7 1 0.2 0.6 0.2 1.2v19q0 0.6-0.2 1.2-0.3 0.6-0.7 1.1-0.5 0.4-1.1 0.7-0.6 0.2-1.2 0.2h-47.9q-0.7 0-1.2-0.2-0.6-0.3-1.1-0.7-0.4-0.5-0.7-1.1-0.2-0.6-0.2-1.2v-19q0-0.6 0.2-1.2 0.3-0.6 0.7-1 0.5-0.5 1.1-0.7 0.5-0.2 1.2-0.3h9.6v-3.6h-9.6q-0.7 0-1.2-0.2-0.6-0.2-1.1-0.7-0.4-0.4-0.7-1-0.2-0.6-0.2-1.2v-19q0-0.7 0.2-1.2 0.3-0.6 0.7-1.1 0.5-0.4 1.1-0.7 0.5-0.2 1.2-0.2h47.9q0.6 0 1.2 0.2 0.6 0.3 1.1 0.7 0.4 0.5 0.7 1.1 0.2 0.5 0.2 1.2v19q0 0.6-0.2 1.2-0.3 0.6-0.7 1-0.5 0.5-1.1 0.7-0.6 0.2-1.2 0.2zm-38.3-3.1c38.5 0 48 0 48 0v-19h-48zm48 9.9h-48v19c38.5 0 48 0 48 0zm-12.9-6.8h-22.2v3.6h22.2z" fill="#000000"/><path fill-rule="evenodd" class="b" d="m38.5 18.1q-1.1-0.4-1.9-1.3-0.8-0.8-1.3-1.8-0.4-1.1-0.4-2.3c0-2.3 1.4-4.5 3.6-5.4 2.2-0.9 4.7-0.4 6.3 1.3 1.7 1.7 2.2 4.2 1.3 6.4-0.9 2.1-3 3.6-5.4 3.6q-1.1 0-2.2-0.5zm1.2-7.8q-0.5 0.2-0.9 0.6-0.3 0.3-0.5 0.8-0.2 0.5-0.2 1c0 1.1 0.6 2.1 1.6 2.5 1 0.4 2.1 0.2 2.9-0.6 0.8-0.8 1-1.9 0.6-2.9-0.4-1-1.4-1.6-2.5-1.6q-0.5 0-1 0.2z" fill="#000000"/><path class="c" d="m10.2 6.9h-1.7c-0.4 0-0.8 0.2-1.1 0.5-0.3 0.3-0.5 0.7-0.5 1.1 0 0.4 0.2 0.8 0.5 1.1 0.3 0.3 0.7 0.5 1.1 0.5h1.7c0.4 0 0.8-0.2 1.1-0.5 0.3-0.3 0.4-0.7 0.4-1.1 0-0.4-0.1-0.8-0.4-1.1-0.3-0.3-0.7-0.5-1.1-0.5z" fill="#000000"/><path class="d" d="m10.2 15.4h-1.7c-0.4 0-0.8 0.2-1.1 0.5-0.3 0.3-0.5 0.7-0.5 1.1 0 0.4 0.2 0.8 0.5 1.1 0.3 0.3 0.7 0.4 1.1 0.5h1.7c0.4 0 0.8-0.2 1.1-0.5 0.3-0.3 0.5-0.7 0.5-1.1 0-0.5-0.2-0.9-0.5-1.2-0.3-0.3-0.7-0.4-1.1-0.4z" fill="#000000"/><path class="e" d="m17 10.1h1.7c0.4 0 0.8-0.2 1.1-0.5 0.3-0.3 0.5-0.7 0.5-1.1 0-0.4-0.2-0.9-0.5-1.2-0.3-0.3-0.7-0.4-1.1-0.4h-1.7c-0.4 0-0.8 0.2-1.1 0.5-0.3 0.3-0.5 0.7-0.5 1.1 0 0.4 0.2 0.8 0.5 1.1 0.3 0.3 0.7 0.5 1.1 0.5z" fill="#000000"/><path class="f" d="m17 18.6h1.7c0.4 0 0.8-0.2 1.1-0.5 0.3-0.3 0.5-0.7 0.5-1.1 0-0.5-0.2-0.9-0.5-1.2-0.3-0.3-0.7-0.4-1.1-0.4h-1.7c-0.4 0-0.8 0.2-1.1 0.5-0.3 0.3-0.5 0.7-0.5 1.1 0 0.4 0.2 0.8 0.5 1.1 0.3 0.3 0.7 0.4 1.1 0.5z" fill="#000000"/><path class="g" d="m25.5 10.1h1.7c0.4 0 0.8-0.2 1.1-0.5 0.3-0.3 0.5-0.7 0.5-1.1 0-0.4-0.2-0.9-0.5-1.2-0.3-0.3-0.7-0.4-1.1-0.4h-1.7c-0.5 0-0.9 0.1-1.2 0.4-0.3 0.3-0.5 0.8-0.5 1.2 0 0.4 0.2 0.8 0.5 1.1 0.3 0.3 0.7 0.5 1.2 0.5z" fill="#000000"/><path class="h" d="m25.5 18.6h1.7c0.4 0 0.8-0.2 1.1-0.5 0.3-0.3 0.5-0.7 0.5-1.1 0-0.5-0.2-0.9-0.5-1.2-0.3-0.3-0.7-0.4-1.1-0.4h-1.7c-0.5 0-0.9 0.1-1.2 0.4-0.3 0.3-0.5 0.7-0.5 1.2 0 0.4 0.2 0.8 0.5 1.1 0.3 0.3 0.7 0.5 1.2 0.5z" fill="#000000"/><path fill-rule="evenodd" class="i" d="m35.3 39.3q0.5-1 1.3-1.9 0.8-0.8 1.9-1.2 1.1-0.5 2.2-0.5c2.4 0 4.5 1.5 5.4 3.6 0.9 2.2 0.4 4.7-1.3 6.4-1.6 1.7-4.1 2.2-6.3 1.3-2.2-0.9-3.6-3.1-3.6-5.4q0-1.2 0.4-2.3zm4.4-0.2q-0.5 0.2-0.9 0.6-0.3 0.4-0.5 0.9-0.2 0.4-0.2 1c0 1 0.6 2 1.6 2.4 1 0.4 2.1 0.2 2.9-0.6 0.8-0.7 1-1.9 0.6-2.8-0.4-1-1.4-1.7-2.5-1.7q-0.5 0-1 0.2z" fill="#000000"/><path class="j" d="m10.2 35.7h-1.7c-0.4 0-0.8 0.2-1.1 0.5-0.3 0.3-0.5 0.7-0.5 1.1 0 0.4 0.2 0.8 0.5 1.1 0.3 0.3 0.7 0.5 1.1 0.5h1.7c0.4 0 0.8-0.2 1.1-0.5 0.3-0.3 0.4-0.7 0.4-1.1 0-0.4-0.1-0.8-0.4-1.1-0.3-0.3-0.7-0.5-1.1-0.5z" fill="#000000"/><path class="k" d="m10.2 44.2h-1.7c-0.4 0-0.8 0.2-1.1 0.5-0.3 0.3-0.5 0.7-0.5 1.1 0 0.4 0.2 0.8 0.5 1.1 0.3 0.3 0.7 0.5 1.1 0.5h1.7c0.4 0 0.8-0.2 1.1-0.5 0.3-0.3 0.4-0.7 0.4-1.1 0-0.4-0.1-0.8-0.4-1.1-0.3-0.3-0.7-0.5-1.1-0.5z" fill="#000000"/><path class="l" d="m18.7 35.7h-1.7c-0.5 0-0.8 0.2-1.1 0.5-0.3 0.3-0.5 0.7-0.5 1.1 0 0.4 0.2 0.8 0.5 1.1 0.3 0.3 0.6 0.5 1.1 0.5h1.7c0.4 0 0.8-0.1 1.1-0.4 0.3-0.3 0.5-0.7 0.5-1.2 0-0.4-0.2-0.8-0.5-1.1-0.3-0.3-0.7-0.5-1.1-0.5z" fill="#000000"/><path class="m" d="m18.7 44.2h-1.7c-0.5 0-0.8 0.2-1.1 0.5-0.3 0.3-0.5 0.7-0.5 1.1 0 0.4 0.2 0.8 0.5 1.1 0.3 0.3 0.6 0.5 1.1 0.5h1.7c0.4 0 0.8-0.2 1.1-0.4 0.3-0.3 0.5-0.8 0.5-1.2 0-0.4-0.2-0.8-0.5-1.1-0.3-0.3-0.7-0.5-1.1-0.5z" fill="#000000"/><path class="n" d="m27.1 35.7h-1.7c-0.4 0-0.8 0.2-1.1 0.5-0.3 0.3-0.5 0.7-0.5 1.1 0 0.5 0.2 0.9 0.5 1.2 0.3 0.3 0.7 0.4 1.1 0.4h1.7c0.5 0 0.9-0.1 1.2-0.4 0.3-0.3 0.5-0.7 0.5-1.2 0-0.4-0.2-0.8-0.5-1.1-0.3-0.3-0.7-0.5-1.2-0.5z" fill="#000000"/><path class="o" d="m27.1 44.2h-1.7c-0.4 0-0.8 0.2-1.1 0.5-0.3 0.3-0.5 0.7-0.5 1.1 0 0.4 0.2 0.9 0.5 1.2 0.3 0.2 0.7 0.4 1.1 0.4h1.7c0.5 0 0.9-0.2 1.2-0.4 0.3-0.3 0.5-0.8 0.5-1.2 0-0.4-0.2-0.8-0.5-1.1-0.3-0.3-0.7-0.5-1.2-0.5z" fill="#000000"/></svg>