<svg xmlns="http://www.w3.org/2000/svg" version="1.2" viewBox="0 0 55 55" width="55" height="55"><defs fill="#000000"><linearGradient id="P" gradientUnits="userSpaceOnUse" fill="#000000"/><linearGradient id="g1" x2="1" href="#P" gradientTransform="matrix(0,29.446,-29.446,0,39.572,24.849)" fill="#000000"><stop stop-color="#77e6ff" fill="#000000"/><stop offset="1" stop-color="#006282" fill="#000000"/></linearGradient><linearGradient id="g2" x2="1" href="#P" gradientTransform="matrix(0,3.4,-15.857,0,39.572,37.888)" fill="#000000"><stop stop-color="#77e6ff" fill="#000000"/><stop offset="1" stop-color="#006282" fill="#000000"/></linearGradient><linearGradient id="g3" x2="1" href="#P" gradientTransform="matrix(0,3.4,-19.64,0,10.953,33.931)" fill="#000000"><stop stop-color="#77e6ff" fill="#000000"/><stop offset="1" stop-color="#006282" fill="#000000"/></linearGradient><linearGradient id="g4" x2="1" href="#P" gradientTransform="matrix(0,4.666,-4.56,0,29.814,9.107)" fill="#000000"><stop stop-color="#77e6ff" fill="#000000"/><stop offset="1" stop-color="#006282" fill="#000000"/></linearGradient><linearGradient id="g5" x2="1" href="#P" gradientTransform="matrix(0,4.666,-4.666,0,20.653,9.107)" fill="#000000"><stop stop-color="#77e6ff" fill="#000000"/><stop offset="1" stop-color="#006282" fill="#000000"/></linearGradient><linearGradient id="g6" x2="1" href="#P" gradientTransform="matrix(0,4.666,-4.666,0,11.44,9.107)" fill="#000000"><stop stop-color="#77e6ff" fill="#000000"/><stop offset="1" stop-color="#006282" fill="#000000"/></linearGradient><linearGradient id="g7" x2="1" href="#P" gradientTransform="matrix(0,54.295,-40.7,0,20.35,0)" fill="#000000"><stop stop-color="#77e6ff" fill="#000000"/><stop offset="1" stop-color="#006282" fill="#000000"/></linearGradient></defs><style>.a{fill:url(#g1)}.b{fill:url(#g2)}.c{fill:url(#g3)}.d{fill:url(#g4)}.e{fill:url(#g5)}.f{fill:url(#g6)}.g{fill:url(#g7)}</style><path fill-rule="evenodd" class="a" d="m39.6 54.3c-6 0-11.4-3.6-13.6-9.1-2.3-5.5-1-11.8 3.2-16 4.2-4.2 10.5-5.5 16-3.2 5.5 2.2 9.1 7.6 9.1 13.6 0 1.9-0.4 3.8-1.1 5.6-0.8 1.8-1.9 3.4-3.2 4.8-1.4 1.3-3 2.4-4.8 3.2-1.8 0.7-3.7 1.1-5.6 1.1zm0-26.1c-4.6 0-8.7 2.8-10.5 7-1.7 4.3-0.8 9.1 2.5 12.4 3.2 3.2 8.1 4.2 12.3 2.4 4.2-1.7 7-5.8 7-10.4 0-1.5-0.3-3-0.9-4.4-0.5-1.3-1.4-2.6-2.4-3.6-1.1-1.1-2.3-1.9-3.7-2.5-1.4-0.6-2.8-0.9-4.3-0.9z" fill="#000000"/><path class="b" d="m45.8 41.3h-12.5c-0.4 0-0.8-0.2-1.2-0.5-0.3-0.3-0.5-0.8-0.5-1.2 0-0.5 0.2-0.9 0.5-1.2 0.4-0.3 0.8-0.5 1.2-0.5h12.5c0.5 0 0.9 0.2 1.2 0.5 0.3 0.3 0.5 0.7 0.5 1.2 0 0.4-0.2 0.9-0.5 1.2-0.3 0.3-0.7 0.5-1.2 0.5z" fill="#000000"/><path class="c" d="m19.1 37.3h-16.3c-0.4 0-0.9-0.1-1.2-0.5-0.3-0.3-0.5-0.7-0.5-1.2 0-0.4 0.2-0.9 0.5-1.2 0.3-0.3 0.8-0.5 1.2-0.5h16.3c0.4 0 0.9 0.2 1.2 0.5 0.3 0.3 0.5 0.8 0.5 1.2 0 0.5-0.2 0.9-0.5 1.2-0.3 0.4-0.8 0.5-1.2 0.5z" fill="#000000"/><path class="d" d="m29.8 13.8c-1.2 0-2.3-1.1-2.3-2.4 0-1.3 1.1-2.3 2.3-2.3 1.3 0 2.3 1 2.3 2.3 0 1.3-1 2.4-2.3 2.4z" fill="#000000"/><path class="e" d="m20.7 13.8c-1.3 0-2.4-1.1-2.4-2.4 0-1.3 1.1-2.3 2.4-2.3 1.2 0 2.3 1 2.3 2.3 0 1.3-1.1 2.4-2.3 2.4z" fill="#000000"/><path class="f" d="m11.4 13.8c-1.3 0-2.3-1.1-2.3-2.4 0-1.3 1-2.3 2.3-2.3 1.3 0 2.4 1 2.4 2.3 0 1.3-1.1 2.4-2.4 2.4z" fill="#000000"/><path fill-rule="evenodd" class="g" d="m23.2 54.3h-17q-1.2 0-2.4-0.5-1.1-0.5-2-1.3-0.9-0.9-1.3-2-0.5-1.2-0.5-2.4v-41.9q0-1.2 0.5-2.4 0.4-1.1 1.3-2 0.9-0.8 2-1.3 1.2-0.5 2.4-0.5h28.3q1.2 0 2.4 0.5 1.1 0.5 2 1.3 0.9 0.9 1.3 2 0.5 1.2 0.5 2.4v12.5q0 0.3-0.1 0.6-0.2 0.3-0.4 0.6-0.2 0.2-0.5 0.3-0.4 0.2-0.7 0.2h-35.6v27.7q0 0.5 0.2 1.1 0.2 0.5 0.6 0.9 0.4 0.4 0.9 0.6 0.6 0.2 1.1 0.2h17c0.4 0 0.8 0.2 1.1 0.5 0.3 0.3 0.5 0.8 0.5 1.2 0 0.4-0.2 0.8-0.5 1.2-0.3 0.3-0.7 0.5-1.1 0.5zm-19.8-37.3h33.9v-10.8q0-0.5-0.2-1.1-0.2-0.5-0.6-0.9-0.4-0.4-0.9-0.6-0.6-0.2-1.1-0.2h-28.3q-0.5 0-1.1 0.2-0.5 0.2-0.9 0.6-0.4 0.4-0.6 0.9-0.2 0.6-0.2 1.1z" fill="#000000"/></svg>