<svg xmlns="http://www.w3.org/2000/svg" version="1.2" viewBox="0 0 55 55" width="55" height="55"><defs fill="#000000"><linearGradient id="P" gradientUnits="userSpaceOnUse" fill="#000000"/><linearGradient id="g1" x2="1" href="#P" gradientTransform="matrix(0,54.298,-54.302,0,27.143,-0.002)" fill="#000000"><stop stop-color="#77e6ff" fill="#000000"/><stop offset="1" stop-color="#006282" fill="#000000"/></linearGradient></defs><style>.a{fill:url(#g1)}</style><path fill-rule="evenodd" class="a" d="m53.7 45.6c1 2.1 0.7 4.5-0.6 6.3-1.4 1.8-3.7 2.7-5.9 2.3-2.3-0.5-4.1-2.1-4.7-4.3h-9.6c-0.3 1.3-1.1 2.4-2.1 3.2-1.1 0.8-2.3 1.2-3.6 1.2-1.4 0-2.6-0.4-3.7-1.2-1-0.8-1.8-1.9-2.1-3.2h-9.6c-0.8 2.9-3.6 4.7-6.6 4.3-3-0.4-5.2-2.9-5.2-5.9 0-3 2.2-5.5 5.2-5.9 3-0.5 5.8 1.4 6.6 4.3h9.6q0.2-0.7 0.6-1.4 0.4-0.7 0.9-1.2 0.6-0.6 1.2-1 0.7-0.4 1.5-0.6v-6.1h-12.7c-3.3 0-6.6-1.3-9-3.7-2.4-2.4-3.7-5.6-3.7-9 0-3.4 1.3-6.7 3.7-9 2.4-2.4 5.7-3.8 9-3.8h1v-0.7c-0.1-2.7 1-5.3 2.9-7.2 1.9-1.9 4.4-3 7.1-3 2.7 0 5.3 1 7.2 2.8 1.9 1.9 3 4.4 3.1 7.1 1.2-0.4 2.5-0.5 3.8-0.3 1.2 0.2 2.4 0.6 3.5 1.4 1 0.7 1.9 1.6 2.6 2.7 0.6 1.1 1 2.3 1.1 3.5 2.5 0.2 4.8 1.4 6.5 3.2 1.6 1.9 2.5 4.3 2.4 6.8-0.1 2.5-1.1 4.8-2.9 6.5-1.8 1.8-4.2 2.7-6.7 2.7h-15.8v6.1q0.8 0.2 1.5 0.6 0.6 0.4 1.2 0.9 0.5 0.6 0.9 1.3 0.4 0.6 0.6 1.4h9.6q0.3-0.9 0.8-1.8 0.6-0.8 1.4-1.4 0.8-0.6 1.7-0.9 0.9-0.3 1.9-0.3c2.3 0 4.4 1.3 5.4 3.3zm-49.6-18.3c0.5 1.2 1.2 2.3 2.1 3.2 0.9 0.8 1.9 1.5 3.1 2 1.1 0.5 2.4 0.8 3.6 0.8h31.6c1.7 0 3.4-0.7 4.6-1.9 1.2-1.2 1.8-2.9 1.8-4.6 0-1.7-0.6-3.3-1.8-4.5-1.2-1.2-2.9-1.9-4.6-1.9h-2.6l0.2-1.8q0 0 0-0.1 0-0.1 0-0.1 0-0.1 0-0.2 0-0.1 0-0.1 0-1.1-0.4-2.1-0.4-1-1.2-1.7-0.7-0.8-1.7-1.2-1-0.4-2.1-0.4-0.4 0-0.8 0.1-0.4 0-0.8 0.2-0.4 0.1-0.8 0.3-0.4 0.2-0.7 0.4l-2.6 1.9v-5.4c0-1.9-0.7-3.6-2-5-1.3-1.3-3.1-2-5-2-1.8 0-3.6 0.7-4.9 2-1.3 1.4-2.1 3.1-2.1 5v3.9h-4.1c-1.2 0-2.5 0.3-3.6 0.7-1.2 0.5-2.2 1.2-3.1 2.1-0.9 0.9-1.6 2-2.1 3.1-0.5 1.2-0.7 2.4-0.7 3.7 0 1.2 0.2 2.5 0.7 3.6zm3 23.6q0.5-0.2 0.9-0.6 0.4-0.4 0.6-0.9 0.2-0.5 0.2-1.1c0-1.1-0.7-2.2-1.7-2.6-1.1-0.5-2.3-0.2-3.1 0.6-0.8 0.8-1.1 2-0.6 3.1 0.4 1 1.5 1.7 2.6 1.7q0.6 0 1.1-0.2zm21.1 0q0.6-0.2 0.9-0.6 0.4-0.4 0.7-0.9 0.2-0.5 0.2-1.1c0-1.1-0.7-2.2-1.8-2.6-1-0.5-2.2-0.2-3 0.6-0.9 0.8-1.1 2-0.7 3.1 0.5 1 1.5 1.7 2.7 1.7q0.5 0 1-0.2zm21.2 0q0.5-0.2 0.9-0.6 0.4-0.4 0.6-0.9 0.2-0.5 0.2-1.1c0-1.1-0.7-2.2-1.7-2.6-1.1-0.5-2.3-0.2-3.1 0.6-0.8 0.8-1 2-0.6 3.1 0.4 1 1.5 1.7 2.6 1.7q0.6 0 1.1-0.2z" fill="#000000"/></svg>